<svg xmlns="http://www.w3.org/2000/svg" width="122" height="27" viewBox="0 0 122 27">
    <g fill="none" fill-rule="evenodd">
        <g fill-rule="nonzero">
            <g>
                <path fill="#FC0" d="M0 0H122V27H0z" transform="translate(-4 -42) translate(4 42)"/>
                <g fill="#D40511">
                    <g>
                        <g>
                            <path d="M0 2.242L16.499 2.242 15.597 3.451 0 3.451 0 2.242zM0 0L18.175 0 17.272 1.207 0 1.207 0 0zM0 4.486L14.824 4.486 13.926 5.686 0 5.686 0 4.486z" transform="translate(-4 -42) translate(4 42) translate(0 5) translate(0 11.312)"/>
                        </g>
                        <g>
                            <path d="M18.105 3.451L1.671 3.451 2.572 2.243 18.105 2.243 18.105 3.451zM18.105 5.686L0 5.688.897 4.486 18.105 4.486 18.105 5.686zM4.246 0L18.105 0 18.105 1.208 3.345 1.209 4.246 0z" transform="translate(-4 -42) translate(4 42) translate(0 5) translate(0 11.312) translate(103.895)"/>
                        </g>
                    </g>
                    <g>
                        <path d="M0 10.48L7.83 0h9.714c1.074 0 1.06.402.536 1.102-.533.712-1.44 1.935-1.983 2.657-.276.367-.774 1.036.877 1.036h13.015c-1.082 1.46-4.593 5.686-10.898 5.686H0zM44.837 4.794l-4.245 5.687h-11.2s4.244-5.686 4.247-5.686l11.198-.001zM61.032 4.795l-4.248 5.686H45.59s4.244-5.686 4.248-5.686h11.195zM64.674 4.795s-.818 1.102-1.216 1.631c-1.406 1.873-.163 4.055 4.427 4.055h17.98l4.246-5.686H64.674z" transform="translate(-4 -42) translate(4 42) translate(0 5) translate(15.98 6.518)"/>
                    </g>
                    <g>
                        <path d="M3.898 0L0 5.218h21.243c1.074 0 1.06.402.535 1.102-.533.711-1.425 1.949-1.968 2.67-.275.367-.773 1.035.877 1.035h8.688s1.4-1.877 2.574-3.447C33.545 4.443 32.087 0 26.379 0H3.898zM60.417 10.025L33.024 10.025 40.515 0 51.71 0 47.418 5.748 52.415 5.748 56.71 0 67.905 0 60.417 10.025zM83.41 0l-7.49 10.025H64.057S71.549 0 71.552 0H83.41z" transform="translate(-4 -42) translate(4 42) translate(0 5) translate(17.557)"/>
                    </g>
                </g>
            </g>
        </g>
    </g>
</svg>
