<svg xmlns="http://www.w3.org/2000/svg" width="115" height="56" viewBox="0 0 115 56">
    <g fill="none" fill-rule="evenodd">
        <g>
            <g>
                <path d="M0 0H115V56H0z" transform="translate(-7 -27) translate(7 27)"/>
                <g fill-rule="nonzero">
                    <path fill="#FF5900" d="M92.3 21.92c0-1.4-1.05-2.45-2.45-2.45-1.4 0-2.451 1.05-2.451 2.45 0 1.398 1.05 2.448 2.45 2.448 1.517 0 2.45-1.05 2.45-2.449zm-3.034.116v1.632h-.467v-3.614h1.284c.817 0 1.167.35 1.167.933 0 .35-.234.7-.584.816.35 0 .467.35.467.816 0 .35.117.816.233 1.05h-.583c-.117-.35-.117-.817-.233-1.167-.117-.35-.234-.466-.584-.466h-.7zm.7-.466c.467 0 .7-.234.7-.467s-.116-.466-.7-.466h-.7v.933h.7zm-3.034.35c0-1.75 1.4-2.916 3.034-2.916S93 20.17 93 21.92c0 1.75-1.4 2.915-3.034 2.915s-3.034-1.166-3.034-2.915z" transform="translate(-7 -27) translate(7 27) translate(15 16)"/>
                    <g fill="#FF5900">
                        <path d="M27.772 24.834L24.388 20.987 21.004 24.834 13.769 24.834 20.77 16.906 13.769 9.094 21.237 9.094 24.621 12.942 28.005 9.094 35.123 9.094 28.122 16.906 35.24 24.834zM0 24.834L0 0 13.769 0 13.769 5.596 5.834 5.596 5.834 9.094 13.769 9.094 13.769 14.341 5.834 14.341 5.834 19.238 13.769 19.238 13.769 24.834z" transform="translate(-7 -27) translate(7 27) translate(15 16) translate(48.775)"/>
                    </g>
                    <path fill="#2A007C" d="M42.941 0v10.143h-.117c-1.283-1.515-2.917-1.982-4.784-1.982-3.85 0-6.651 2.565-7.701 6.063-1.167-3.73-4.084-6.063-8.518-6.063-3.618 0-6.418 1.633-7.935 4.198V9.094H6.535V5.596h8.05V.116H0v24.835h6.651V14.574h6.535c-.234.816-.35 1.632-.35 2.448 0 5.13 3.967 8.861 8.985 8.861 4.2 0 7-1.982 8.518-5.596h-5.601c-.817 1.05-1.4 1.4-2.917 1.4-1.75 0-3.268-1.517-3.268-3.382h11.552C30.572 22.385 33.84 26 38.157 26c1.867 0 3.617-.933 4.667-2.565h.117v1.632h5.834V0h-5.834zM18.787 14.457c.35-1.632 1.633-2.565 3.15-2.565 1.634 0 2.8 1.05 3.15 2.565h-6.3zm20.653 6.646c-2.1 0-3.5-1.982-3.5-4.08 0-2.216 1.167-4.314 3.5-4.314 2.45 0 3.384 2.098 3.384 4.313 0 2.1-1.05 4.081-3.384 4.081z" transform="translate(-7 -27) translate(7 27) translate(15 16)"/>
                </g>
            </g>
        </g>
    </g>
</svg>
