<svg id="Livello_1" data-name="Livello 1" width="108" height="77" xmlns="http://www.w3.org/2000/svg" xmlns:xlink="http://www.w3.org/1999/xlink" viewBox="0 0 108 77"><defs><style>.cls-1,.cls-2{fill:#e31b17;}.cls-2,.cls-3,.cls-4{fill-rule:evenodd;}.cls-3{fill:#fff;}.cls-4{fill:#fddf00;}.cls-5{fill:#b31920;}.cls-6{fill:url(#Sfumatura_senza_nome_40);}.cls-7{fill:#8e8e96;}.cls-8{fill:url(#Sfumatura_senza_nome_81);}.cls-9{fill:url(#Sfumatura_senza_nome_81-2);}.cls-10{fill:url(#Sfumatura_senza_nome_96);}.cls-11{fill:url(#Sfumatura_senza_nome_97);}.cls-12{fill:url(#Sfumatura_senza_nome_30);}.cls-13{fill:url(#Sfumatura_senza_nome_24);}.cls-14{fill:url(#Sfumatura_senza_nome_25);}.cls-15{fill:url(#Sfumatura_senza_nome_67);}.cls-16{fill:#c89714;}.cls-17{fill:#c08f13;}.cls-18{fill:#e2c155;}.cls-19{fill:#eed570;}.cls-20{fill:url(#Sfumatura_senza_nome_73);}.cls-21{fill:url(#Sfumatura_senza_nome_151);}.cls-22{fill:url(#Sfumatura_senza_nome_166);}.cls-23{fill:url(#Sfumatura_senza_nome_165);}.cls-24{fill:url(#Sfumatura_senza_nome_165-2);}.cls-25{fill:url(#Sfumatura_senza_nome_22);}.cls-26{fill:url(#Sfumatura_senza_nome_12);}.cls-27{fill:url(#Sfumatura_senza_nome_48);}.cls-28{fill:url(#Sfumatura_senza_nome_48-2);}.cls-29{fill:url(#Sfumatura_senza_nome_48-3);}.cls-30{fill:url(#Sfumatura_senza_nome_48-4);}.cls-31{fill:url(#Sfumatura_senza_nome_48-5);}.cls-32{fill:url(#Sfumatura_senza_nome_48-6);}.cls-33{fill:url(#Sfumatura_senza_nome_48-7);}.cls-34{fill:url(#Sfumatura_senza_nome_48-8);}.cls-35{fill:url(#Sfumatura_senza_nome_48-9);}.cls-36{fill:url(#Sfumatura_senza_nome_48-10);}.cls-37{fill:url(#Sfumatura_senza_nome_48-11);}.cls-38{fill:url(#Sfumatura_senza_nome_48-12);}.cls-39{fill:url(#Sfumatura_senza_nome_48-13);}.cls-40{fill:url(#Sfumatura_senza_nome_48-14);}.cls-41{fill:url(#Sfumatura_senza_nome_48-15);}.cls-42{fill:url(#Sfumatura_senza_nome_48-16);}.cls-43{fill:url(#Sfumatura_senza_nome_48-17);}.cls-44{fill:url(#Sfumatura_senza_nome_48-18);}.cls-45{fill:url(#Sfumatura_senza_nome_48-19);}.cls-46{fill:url(#Sfumatura_senza_nome_48-20);}.cls-47{fill:url(#Sfumatura_senza_nome_48-21);}.cls-48{fill:url(#Sfumatura_senza_nome_48-22);}.cls-49{fill:url(#Sfumatura_senza_nome_48-23);}.cls-50{fill:#d7ab10;}.cls-51{fill:url(#Sfumatura_senza_nome_105);}.cls-52{fill:#565d3a;}.cls-53{fill:url(#Sfumatura_senza_nome_105-2);}.cls-54{fill:#818ac2;}.cls-55{fill:#d0d9e8;}.cls-56{fill:#7f7fb4;}.cls-57{fill:#a7abc9;}.cls-58{fill:#5d5d94;}.cls-59{fill:#6d6da0;}.cls-60{fill:#a41c19;}.cls-61{fill:url(#Sfumatura_senza_nome_111);}.cls-62{fill:url(#Sfumatura_senza_nome_111-2);}.cls-63{fill:url(#Sfumatura_senza_nome_48-24);}.cls-64{fill:url(#Sfumatura_senza_nome_48-25);}</style><radialGradient id="Sfumatura_senza_nome_40" cx="53.99" cy="29.93" r="13.21" gradientTransform="translate(0 26.85) scale(1 0.1)" gradientUnits="userSpaceOnUse"><stop offset="0" stop-color="#fff"/><stop offset="0.71" stop-color="#adb9c2"/><stop offset="0.8" stop-color="#aab5be"/><stop offset="0.88" stop-color="#a2aab3"/><stop offset="0.97" stop-color="#95979f"/><stop offset="1" stop-color="#8e8e96"/></radialGradient><radialGradient id="Sfumatura_senza_nome_81" cx="46.32" cy="16.97" r="5.63" gradientUnits="userSpaceOnUse"><stop offset="0" stop-color="#d09629"/><stop offset="0.5" stop-color="#f8e67c"/><stop offset="0.54" stop-color="#f3db71"/><stop offset="0.66" stop-color="#e4bd52"/><stop offset="0.78" stop-color="#d9a83b"/><stop offset="0.89" stop-color="#d29a2e"/><stop offset="0.99" stop-color="#d09629"/></radialGradient><radialGradient id="Sfumatura_senza_nome_81-2" cx="61.07" cy="15.64" r="6.3" xlink:href="#Sfumatura_senza_nome_81"/><radialGradient id="Sfumatura_senza_nome_96" cx="44.6" cy="15.11" r="3.61" gradientUnits="userSpaceOnUse"><stop offset="0" stop-color="#fff"/><stop offset="0.99" stop-color="#fff" stop-opacity="0"/></radialGradient><radialGradient id="Sfumatura_senza_nome_97" cx="62.65" cy="14.29" r="5.32" gradientUnits="userSpaceOnUse"><stop offset="0" stop-color="#fff"/><stop offset="0.09" stop-color="#fff" stop-opacity="0.95"/><stop offset="0.25" stop-color="#fff" stop-opacity="0.83"/><stop offset="0.46" stop-color="#fff" stop-opacity="0.63"/><stop offset="0.71" stop-color="#fff" stop-opacity="0.34"/><stop offset="0.99" stop-color="#fff" stop-opacity="0"/></radialGradient><radialGradient id="Sfumatura_senza_nome_30" cx="53.77" cy="12.41" r="2.04" gradientUnits="userSpaceOnUse"><stop offset="0" stop-color="#fff"/><stop offset="0.39" stop-color="#fbe264"/><stop offset="0.51" stop-color="#f8de62"/><stop offset="0.63" stop-color="#f1d35a"/><stop offset="0.75" stop-color="#e4bf4e"/><stop offset="0.86" stop-color="#d1a43c"/><stop offset="0.97" stop-color="#ba8126"/><stop offset="1" stop-color="#b47820"/></radialGradient><linearGradient id="Sfumatura_senza_nome_24" x1="53.99" y1="13.06" x2="53.99" y2="10.57" gradientUnits="userSpaceOnUse"><stop offset="0" stop-color="#fbe264"/><stop offset="0.18" stop-color="#f8dd61"/><stop offset="0.38" stop-color="#efd059"/><stop offset="0.59" stop-color="#e0ba4a"/><stop offset="0.8" stop-color="#cc9b37"/><stop offset="1" stop-color="#b47820"/></linearGradient><radialGradient id="Sfumatura_senza_nome_25" cx="53.96" cy="12.01" r="1.46" xlink:href="#Sfumatura_senza_nome_24"/><linearGradient id="Sfumatura_senza_nome_67" x1="53.99" y1="20.2" x2="53.99" y2="14.32" gradientUnits="userSpaceOnUse"><stop offset="0" stop-color="#cc9b21"/><stop offset="0.26" stop-color="#f4d544"/><stop offset="0.3" stop-color="#f4d648"/><stop offset="0.35" stop-color="#f5d956"/><stop offset="0.39" stop-color="#f6df6c"/><stop offset="0.44" stop-color="#f8e68a"/><stop offset="0.49" stop-color="#faf0b1"/><stop offset="0.5" stop-color="#fbf3bd"/><stop offset="0.53" stop-color="#f8e99a"/><stop offset="0.58" stop-color="#f4de72"/><stop offset="0.62" stop-color="#f2d553"/><stop offset="0.66" stop-color="#f0ce3c"/><stop offset="0.7" stop-color="#eeca2f"/><stop offset="0.74" stop-color="#eec92a"/><stop offset="0.88" stop-color="#d8ab25"/><stop offset="1" stop-color="#c28d1f"/></linearGradient><linearGradient id="Sfumatura_senza_nome_73" x1="53.99" y1="20.35" x2="53.99" y2="14.16" gradientUnits="userSpaceOnUse"><stop offset="0" stop-color="#8e5b2a"/><stop offset="0.5" stop-color="#fbf3bd"/><stop offset="0.58" stop-color="#decb97"/><stop offset="0.67" stop-color="#c2a370"/><stop offset="0.76" stop-color="#ab8451"/><stop offset="0.84" stop-color="#9b6d3c"/><stop offset="0.93" stop-color="#91602e"/><stop offset="1" stop-color="#8e5b2a"/></linearGradient><linearGradient id="Sfumatura_senza_nome_151" x1="43.58" y1="26.68" x2="64.39" y2="26.68" gradientUnits="userSpaceOnUse"><stop offset="0" stop-color="#b67920"/><stop offset="0.32" stop-color="#f5dc5f"/><stop offset="0.66" stop-color="#f5dd60"/><stop offset="0.77" stop-color="#e2c04d"/><stop offset="1" stop-color="#b4781f"/></linearGradient><linearGradient id="Sfumatura_senza_nome_166" x1="43.49" y1="22.58" x2="64.48" y2="22.58" gradientUnits="userSpaceOnUse"><stop offset="0" stop-color="#b67920"/><stop offset="0.12" stop-color="#cb9935"/><stop offset="0.31" stop-color="#e9c953"/><stop offset="0.4" stop-color="#f5dc5f"/><stop offset="0.57" stop-color="#f5dd60"/><stop offset="0.65" stop-color="#eed259"/><stop offset="0.78" stop-color="#dcb647"/><stop offset="0.95" stop-color="#be8729"/><stop offset="1" stop-color="#b4781f"/></linearGradient><linearGradient id="Sfumatura_senza_nome_165" x1="49.97" y1="22.66" x2="48.61" y2="24.16" gradientTransform="translate(-4.95 -13.22) scale(1.1 1.55)" gradientUnits="userSpaceOnUse"><stop offset="0" stop-color="#fff"/><stop offset="1" stop-color="#f3dc60"/></linearGradient><linearGradient id="Sfumatura_senza_nome_165-2" x1="58.91" y1="23.34" x2="57.55" y2="24.83" gradientTransform="translate(-4.85 -14.24) scale(1.1 1.55)" xlink:href="#Sfumatura_senza_nome_165"/><radialGradient id="Sfumatura_senza_nome_22" cx="53.99" cy="9.04" r="1.68" gradientUnits="userSpaceOnUse"><stop offset="0" stop-color="#fbe264"/><stop offset="0.33" stop-color="#f9e063"/><stop offset="0.51" stop-color="#f4d85d"/><stop offset="0.65" stop-color="#ebca55"/><stop offset="0.77" stop-color="#deb749"/><stop offset="0.88" stop-color="#ce9e39"/><stop offset="0.98" stop-color="#b98025"/><stop offset="1" stop-color="#b47820"/></radialGradient><radialGradient id="Sfumatura_senza_nome_12" cx="53.93" cy="8.99" r="0.42" gradientUnits="userSpaceOnUse"><stop offset="0" stop-color="#feffff"/><stop offset="1" stop-color="#939fa7"/></radialGradient><radialGradient id="Sfumatura_senza_nome_48" cx="50.99" cy="13.65" r="1.03" gradientUnits="userSpaceOnUse"><stop offset="0" stop-color="#fff"/><stop offset="0.57" stop-color="#adb9c2"/><stop offset="0.7" stop-color="#aab4bd"/><stop offset="0.84" stop-color="#a0a7af"/><stop offset="0.99" stop-color="#8f9098"/><stop offset="1" stop-color="#8e8e96"/></radialGradient><radialGradient id="Sfumatura_senza_nome_48-2" cx="49.14" cy="12.86" r="1.03" xlink:href="#Sfumatura_senza_nome_48"/><radialGradient id="Sfumatura_senza_nome_48-3" cx="47.18" cy="12.14" r="1.03" xlink:href="#Sfumatura_senza_nome_48"/><radialGradient id="Sfumatura_senza_nome_48-4" cx="45.12" cy="12.14" r="1.03" xlink:href="#Sfumatura_senza_nome_48"/><radialGradient id="Sfumatura_senza_nome_48-5" cx="43.24" cy="12.97" r="1.03" xlink:href="#Sfumatura_senza_nome_48"/><radialGradient id="Sfumatura_senza_nome_48-6" cx="41.94" cy="14.58" r="1.03" xlink:href="#Sfumatura_senza_nome_48"/><radialGradient id="Sfumatura_senza_nome_48-7" cx="41.39" cy="16.59" r="1.03" xlink:href="#Sfumatura_senza_nome_48"/><radialGradient id="Sfumatura_senza_nome_48-8" cx="41.56" cy="18.65" r="1.03" xlink:href="#Sfumatura_senza_nome_48"/><radialGradient id="Sfumatura_senza_nome_48-9" cx="42.08" cy="20.64" r="1.03" xlink:href="#Sfumatura_senza_nome_48"/><radialGradient id="Sfumatura_senza_nome_48-10" cx="35.61" cy="13.66" r="1.03" gradientTransform="matrix(-1, 0, 0, 1, 92.63, 0)" xlink:href="#Sfumatura_senza_nome_48"/><radialGradient id="Sfumatura_senza_nome_48-11" cx="33.77" cy="12.87" r="1.03" gradientTransform="matrix(-1, 0, 0, 1, 92.63, 0)" xlink:href="#Sfumatura_senza_nome_48"/><radialGradient id="Sfumatura_senza_nome_48-12" cx="31.81" cy="12.15" r="1.03" gradientTransform="matrix(-1, 0, 0, 1, 92.63, 0)" xlink:href="#Sfumatura_senza_nome_48"/><radialGradient id="Sfumatura_senza_nome_48-13" cx="29.75" cy="12.15" r="1.03" gradientTransform="matrix(-1, 0, 0, 1, 92.63, 0)" xlink:href="#Sfumatura_senza_nome_48"/><radialGradient id="Sfumatura_senza_nome_48-14" cx="27.86" cy="12.98" r="1.03" gradientTransform="matrix(-1, 0, 0, 1, 92.63, 0)" xlink:href="#Sfumatura_senza_nome_48"/><radialGradient id="Sfumatura_senza_nome_48-15" cx="26.56" cy="14.59" r="1.03" gradientTransform="matrix(-1, 0, 0, 1, 92.63, 0)" xlink:href="#Sfumatura_senza_nome_48"/><radialGradient id="Sfumatura_senza_nome_48-16" cx="26.01" cy="16.6" r="1.03" gradientTransform="matrix(-1, 0, 0, 1, 92.63, 0)" xlink:href="#Sfumatura_senza_nome_48"/><radialGradient id="Sfumatura_senza_nome_48-17" cx="26.18" cy="18.66" r="1.03" gradientTransform="matrix(-1, 0, 0, 1, 92.63, 0)" xlink:href="#Sfumatura_senza_nome_48"/><radialGradient id="Sfumatura_senza_nome_48-18" cx="26.71" cy="20.64" r="1.03" gradientTransform="matrix(-1, 0, 0, 1, 92.63, 0)" xlink:href="#Sfumatura_senza_nome_48"/><radialGradient id="Sfumatura_senza_nome_48-19" cx="38.53" cy="14.99" r="0.66" gradientTransform="matrix(-1, 0, 0, 1, 92.63, 0)" xlink:href="#Sfumatura_senza_nome_48"/><radialGradient id="Sfumatura_senza_nome_48-20" cx="38.53" cy="16.44" r="0.66" gradientTransform="matrix(-1, 0, 0, 1, 92.63, 0)" xlink:href="#Sfumatura_senza_nome_48"/><radialGradient id="Sfumatura_senza_nome_48-21" cx="38.53" cy="17.88" r="0.66" gradientTransform="matrix(-1, 0, 0, 1, 92.63, 0)" xlink:href="#Sfumatura_senza_nome_48"/><radialGradient id="Sfumatura_senza_nome_48-22" cx="38.53" cy="19.33" r="0.66" gradientTransform="matrix(-1, 0, 0, 1, 92.63, 0)" xlink:href="#Sfumatura_senza_nome_48"/><radialGradient id="Sfumatura_senza_nome_48-23" cx="38.49" cy="22.39" r="0.83" gradientTransform="matrix(-1, 0, 0, 1, 92.63, 0)" xlink:href="#Sfumatura_senza_nome_48"/><radialGradient id="Sfumatura_senza_nome_105" cx="58.12" cy="27.84" r="1.36" gradientTransform="translate(0 15.2) scale(1 0.45)" gradientUnits="userSpaceOnUse"><stop offset="0.16" stop-color="#f2f7f7"/><stop offset="0.65" stop-color="#789349"/><stop offset="0.73" stop-color="#728849"/><stop offset="0.87" stop-color="#6b7b49"/><stop offset="0.99" stop-color="#687649"/></radialGradient><radialGradient id="Sfumatura_senza_nome_105-2" cx="49.77" cy="27.8" r="1.36" gradientTransform="translate(99.32 41.28) rotate(-179.02) scale(1 0.45)" xlink:href="#Sfumatura_senza_nome_105"/><linearGradient id="Sfumatura_senza_nome_111" x1="61.8" y1="27.98" x2="62.28" y2="27.3" gradientUnits="userSpaceOnUse"><stop offset="0" stop-color="#f2f7f7"/><stop offset="0.54" stop-color="#dba090"/><stop offset="0.56" stop-color="#da9e8e"/><stop offset="0.71" stop-color="#d48778"/><stop offset="0.86" stop-color="#d07a6b"/><stop offset="0.99" stop-color="#cf7567"/></linearGradient><linearGradient id="Sfumatura_senza_nome_111-2" x1="77.66" y1="27.89" x2="78.15" y2="27.21" gradientTransform="matrix(-1, 0, 0, 1, 123.75, 0)" xlink:href="#Sfumatura_senza_nome_111"/><radialGradient id="Sfumatura_senza_nome_48-24" cx="21.64" cy="23.62" r="0.55" gradientTransform="matrix(-1, 0, 0, 1, 84.83, 0)" xlink:href="#Sfumatura_senza_nome_48"/><radialGradient id="Sfumatura_senza_nome_48-25" cx="44.64" cy="23.62" r="0.55" xlink:href="#Sfumatura_senza_nome_48"/></defs><rect class="cls-1" x="35.61" y="3.05" width="36.82" height="70.9"/><polygon class="cls-2" points="36.35 3.78 71.71 3.78 71.71 73.22 36.35 73.22 36.35 3.78 36.35 3.78"/><polygon class="cls-3" points="36.35 3.78 71.71 3.78 71.71 73.22 36.35 73.22 36.35 3.78 36.35 3.78"/><polygon class="cls-2" points="2 35.82 106 35.82 106 61.59 2 61.59 2 35.82 2 35.82"/><path class="cls-4" d="M94,40.09a1.24,1.24,0,1,0,1.22,1.24A1.24,1.24,0,0,0,94,40.09Zm0,1.62A.38.38,0,0,1,94,41a.38.38,0,0,1,0,.76Z"/><path class="cls-4" d="M28.1,45.05a5.44,5.44,0,0,0-3.89-1.63,5.57,5.57,0,0,0-3.89,9.49,5.46,5.46,0,0,0,7.78,0,5.6,5.6,0,0,0,0-7.86Zm-.67,7.18a4.54,4.54,0,0,1-6.44,0A4.64,4.64,0,0,1,19.66,49a4.58,4.58,0,0,1,4.55-4.6,4.49,4.49,0,0,1,3.22,1.35,4.64,4.64,0,0,1,0,6.5Z"/><path class="cls-4" d="M27.17,46a4.15,4.15,0,0,0-5.92,0,4.27,4.27,0,0,0,0,6,4.13,4.13,0,0,0,3,1.24,4.24,4.24,0,0,0,3-7.22Zm-3,6.26a3.22,3.22,0,0,1-2.29-1,3.27,3.27,0,0,1,2.29-5.58,3.21,3.21,0,0,1,2.29.95,3.28,3.28,0,0,1-2.29,5.59Z"/><path class="cls-4" d="M39,43.74v9.71A3.59,3.59,0,0,1,37.94,56a3.54,3.54,0,0,1-5,0,3.57,3.57,0,0,1-1-1.75H31a4.5,4.5,0,0,0,1.26,2.43,4.49,4.49,0,0,0,6.4,0,4.57,4.57,0,0,0,1.32-3.23V43.74Z"/><path class="cls-4" d="M35.42,53.65A4.33,4.33,0,0,0,37.68,53v.45a2.27,2.27,0,0,1-2.26,2.28,2.2,2.2,0,0,1-1.6-.67,2.39,2.39,0,0,1-.52-.81h-1a3.18,3.18,0,0,0,.84,1.49,3.13,3.13,0,0,0,2.27.95,3.23,3.23,0,0,0,3.21-3.24v-2.9a3.87,3.87,0,0,1-.75,1.08,3.48,3.48,0,0,1-2.46,1.06,3.53,3.53,0,0,1-2.53-1.06,3.59,3.59,0,0,1-1.05-2.55V43.74h-.95v5.34a4.54,4.54,0,0,0,1.33,3.23,4.48,4.48,0,0,0,3.2,1.34Z"/><path class="cls-4" d="M33.15,51.37a3.17,3.17,0,0,0,2.27,1,3.34,3.34,0,0,0,3.21-3.38v-5.2h-1v5.2a2.41,2.41,0,0,1-2.26,2.42,2.24,2.24,0,0,1-1.6-.67,2.26,2.26,0,0,1-.67-1.61V43.74H32.2v5.34a3.23,3.23,0,0,0,.95,2.29Z"/><polygon class="cls-4" points="55.28 40.35 56.23 40.35 56.23 54.25 55.28 54.25 55.28 40.35 55.28 40.35"/><polygon class="cls-4" points="53.96 40.35 54.91 40.35 54.91 54.25 53.96 54.25 53.96 40.35 53.96 40.35"/><polygon class="cls-4" points="94.15 43.73 95.1 43.73 95.1 54.25 94.15 54.25 94.15 43.73 94.15 43.73"/><polygon class="cls-4" points="92.83 43.73 93.78 43.73 93.78 54.25 92.83 54.25 92.83 43.73 92.83 43.73"/><polygon class="cls-4" points="98.45 40.35 99.4 40.35 99.4 54.25 98.45 54.25 98.45 40.35 98.45 40.35"/><polygon class="cls-4" points="97.14 40.35 98.09 40.35 98.09 54.25 97.14 54.25 97.14 40.35 97.14 40.35"/><path class="cls-4" d="M43.91,46.21a4.13,4.13,0,0,0,0,5.8,4,4,0,0,0,2.86,1.2,4.08,4.08,0,0,0,4.06-4.1V45H46.77a4,4,0,0,0-2.86,1.2Zm6,2.9a3.13,3.13,0,0,1-3.11,3.14,3.07,3.07,0,0,1-2.19-.92,3.16,3.16,0,0,1,0-4.44A3.07,3.07,0,0,1,46.77,46h3.11v3.14Z"/><path class="cls-4" d="M46.77,43.68A5.43,5.43,0,0,0,43,52.94a5.29,5.29,0,0,0,6.9.59v.72h.95V50.88a4.58,4.58,0,0,1-.93,1.39,4.41,4.41,0,0,1-6.25,0,4.48,4.48,0,0,1,3.12-7.63h4.42v9.61h1V43.68Z"/><path class="cls-4" d="M82.69,46.21a4.15,4.15,0,0,0,0,5.8,4,4,0,0,0,2.87,1.2,4.08,4.08,0,0,0,4.06-4.1V45H85.56a4,4,0,0,0-2.87,1.2Zm6,2.9a3.13,3.13,0,0,1-3.11,3.14,3.06,3.06,0,0,1-2.19-.92,3.16,3.16,0,0,1,0-4.44A3.06,3.06,0,0,1,85.56,46h3.11v3.14Z"/><path class="cls-4" d="M85.56,43.68a5.44,5.44,0,0,0-3.8,9.26,5.3,5.3,0,0,0,6.91.59v.72h1V50.88a4.58,4.58,0,0,1-.93,1.39,4.41,4.41,0,0,1-6.25,0,4.48,4.48,0,0,1,3.12-7.63H90v9.61h1V43.68Z"/><path class="cls-4" d="M15.23,49.29a4.27,4.27,0,0,0,1.4-1,5,5,0,0,0,1.45-3.48,4.65,4.65,0,0,0-1.34-3.25,4.36,4.36,0,0,0-3.15-1.29H8.77V54.23h1v-13h3.87a3.42,3.42,0,0,1,2.48,1,3.75,3.75,0,0,1,1.06,2.57A4.12,4.12,0,0,1,16,47.65a3.27,3.27,0,0,1-2.34,1l3.91,5.58h1.16l-3.46-4.94Z"/><path class="cls-4" d="M12.92,48.28h.67a3.37,3.37,0,0,0,3.17-3.43,3.34,3.34,0,0,0-1-2.31,3,3,0,0,0-2.22-.9h-3.5V54.23H11V42.6h2.55a2.11,2.11,0,0,1,1.55.62,2.43,2.43,0,0,1-1.55,4.1H11.08l4.84,6.91h1.16l-4.16-5.95Z"/><polygon class="cls-4" points="77.15 40.35 76.19 40.35 78.64 54.27 79.6 54.27 77.15 40.35 77.15 40.35"/><polygon class="cls-4" points="70.87 48.64 67.07 40.35 66.02 40.35 70.87 50.93 75.72 40.35 74.67 40.35 70.87 48.64 70.87 48.64"/><polygon class="cls-4" points="62.13 54.27 63.1 54.27 65.55 40.35 64.58 40.35 62.13 54.27 62.13 54.27"/><polygon class="cls-4" points="70.87 51.81 65.84 40.82 63.47 54.27 64.43 54.27 66.24 44 70.87 54.09 75.49 44 77.3 54.27 78.27 54.27 75.9 40.82 70.87 51.81 70.87 51.81"/><path class="cls-5" d="M62.64,18a.71.71,0,0,0-.46-.44,5,5,0,0,0-3-.16,8.77,8.77,0,0,0-3.82-.69H52.65a8.8,8.8,0,0,0-3.83.69,5,5,0,0,0-3,.16.7.7,0,0,0-.47.44,34.14,34.14,0,0,0-1.17,4.12l1.62,4.48H62.2l1.61-4.48A32.34,32.34,0,0,0,62.64,18Z"/><path class="cls-6" d="M45.6,30.93a1,1,0,0,1,0-2H62.38a1,1,0,0,1,0,2Z"/><path class="cls-7" d="M62.38,29a.95.95,0,0,1,0,1.9H45.6a.95.95,0,0,1,0-1.9H62.38m0-.1H45.6a1.05,1.05,0,0,0,0,2.1H62.38a1.05,1.05,0,0,0,0-2.1Z"/><path class="cls-8" d="M44.91,21.43l-.62.23-.35.12a.11.11,0,0,1-.17-.06,11.65,11.65,0,0,1-1-3,5.9,5.9,0,0,1-.1-1.57A4.18,4.18,0,0,1,44,14.26a3.36,3.36,0,0,1,2.59-.92,5.15,5.15,0,0,1,1.83.54,26.74,26.74,0,0,0,4.18,1.61l.07,0v.93l-.85-.18a35.55,35.55,0,0,1-3.91-1.12,3.94,3.94,0,0,0-1.49-.23A2.27,2.27,0,0,0,44.51,16a3.32,3.32,0,0,0-.45,1.51,7.73,7.73,0,0,0,.61,3.29C44.74,21,44.82,21.22,44.91,21.43Z"/><path class="cls-9" d="M55.48,16.41c0-.32,0-.62.07-.92,0,0,.07-.06.12-.08.74-.26,1.49-.49,2.21-.77s1.27-.56,1.9-.84a4.74,4.74,0,0,1,1.8-.46,3.38,3.38,0,0,1,2.44.95,4,4,0,0,1,1.2,2.3,6.58,6.58,0,0,1-.32,3.32c-.18.55-.42,1.09-.64,1.64a1.39,1.39,0,0,1-.06.13l-1.08-.38c.13-.35.26-.69.38-1a7.42,7.42,0,0,0,.42-2.42A3.42,3.42,0,0,0,63.43,16a2.32,2.32,0,0,0-2.2-1.09,6.87,6.87,0,0,0-1.8.44A28.69,28.69,0,0,1,55.48,16.41Z"/><path class="cls-10" d="M51.09,15.53l-1-.44c-.74-.3-1.45-.67-2.18-1a4.44,4.44,0,0,0-1.55-.4,3.22,3.22,0,0,0-1.44.24,1.65,1.65,0,0,0-.42.21l-.21.13h0a3.51,3.51,0,0,0-.79.84,1.13,1.13,0,0,0-.21.39,4.25,4.25,0,0,0-.21.56,3.63,3.63,0,0,0-.21,1,4.74,4.74,0,0,0,.18,1.67,5.39,5.39,0,0,0,.22.68c0,.06.06.12.13.11a.16.16,0,0,0,.15-.13.49.49,0,0,0,0-.12A8.71,8.71,0,0,1,43.54,18a4.56,4.56,0,0,1,.52-2,2.54,2.54,0,0,1,1.78-1.34,3.7,3.7,0,0,1,1.62.06c.76.2,1.5.47,2.26.68l1.3.35c.08,0,.2,0,.23,0S51.16,15.56,51.09,15.53Z"/><path class="cls-11" d="M65,16.79c-.06-.36-.18-.7-.25-1a.53.53,0,0,0-.11-.24,1.87,1.87,0,0,0-.5-.79,2.13,2.13,0,0,0-.74-.59,1.67,1.67,0,0,0-.49-.22.2.2,0,0,0-.08,0,5.24,5.24,0,0,0-.79-.15,3,3,0,0,0-1.23.14,12.44,12.44,0,0,0-1.42.58c-.43.22-.87.44-1.32.63a6.51,6.51,0,0,0-.76.34s-.08,0-.07.09.07,0,.11,0a2.2,2.2,0,0,0,.37-.07c.7-.2,1.39-.4,2.08-.62a6.74,6.74,0,0,1,1.4-.31,3.27,3.27,0,0,1,1.42.19,2.46,2.46,0,0,1,1,.67,3.34,3.34,0,0,1,.45.66s0,.11.11.11h0a2,2,0,0,1,.07.23h0v0s0,0,0,0,0,.11,0,.17a1.4,1.4,0,0,1,.09.29,6.53,6.53,0,0,1,.16,1.71.25.25,0,0,0,0,.12s0,.06.06.06,0,0,0-.07a.77.77,0,0,1,0-.15s0-.08.07-.07a.07.07,0,0,1,0,.09.24.24,0,0,0,0,.14c0,.05,0,.11.06.12s.07-.05.08-.09a2.68,2.68,0,0,0,.07-.27A4.09,4.09,0,0,0,65,16.79Z"/><circle class="cls-12" cx="53.99" cy="12.63" r="1.87"/><path class="cls-13" d="M52.16,13c0-.1,0-.23,0-.35a1.58,1.58,0,0,1,0-.38l1.42,0,0-1.88.73,0,0,1.84,1.48,0c0,.1,0,.23,0,.36a2.16,2.16,0,0,1,0,.35Z"/><path class="cls-14" d="M54.32,10.44V12.3h1.45a1.84,1.84,0,0,1,0,.33c0,.11,0,.22,0,.32H52.2a1.66,1.66,0,0,1,0-.32,1.84,1.84,0,0,1,0-.33h1.46V10.44h.66m0,0h-.76v1.86H52.16a2.33,2.33,0,0,0,0,.38,2.21,2.21,0,0,0,0,.37h3.66a2.22,2.22,0,0,0,0-.37,2.34,2.34,0,0,0,0-.38H54.37V10.39Z"/><path class="cls-15" d="M55.83,20.3v0h0a0,0,0,0,0,0,0v0a.06.06,0,0,0,0,0h0V20h0V20h0l0-.17v-.1h0a0,0,0,0,0,0,0h0v0a.13.13,0,0,0,0-.06h0v0h0a1.1,1.1,0,0,1,0-.18c0-.11,0-.23,0-.35a1.1,1.1,0,0,0,0-.18h0a.76.76,0,0,0,0-.15v-.1h0l0-.55c0-.07,0-.14,0-.21v-.15h0c0-.12,0-.24,0-.37v-.38a1.21,1.21,0,0,0,0-.19,1,1,0,0,0,0-.17.33.33,0,0,0,0-.14h0c0-.14,0-.27,0-.41s0-.24,0-.36,0-.11,0-.17h0c0-.13,0-.26,0-.39h0v0h0a0,0,0,0,0,0,0v0h0a0,0,0,0,0,0,0l0-.13h0s0,0,0,0h0v-.07h0v0h0s0-.06,0-.07l-.57-.1-.2,0h0s-.05,0-.08,0a9.09,9.09,0,0,0-.91-.15h0l-.44.07-.55.11h0l-.74.14c-.06,0-.06,0,0,.07h0v0h0a.07.07,0,0,0,0,.05h0v0h0l0,.2v0h0v.09h0l0,.39c0,.06,0,.12,0,.17a.76.76,0,0,0,0,.15s0,.09,0,.14l0,.31a2.11,2.11,0,0,0,0,.26v.26h0c0,.09,0,.18,0,.27s0,.3,0,.45v.65h0l0,.4v0h0v0h0a.15.15,0,0,0,0,.07l0,.35h0a.11.11,0,0,0,0,.05l0,.44,0,.16v0s0,.08,0,.12h0a.59.59,0,0,0,0,.14V20h0a.22.22,0,0,0,0,.08v0h0s0,0,0,0h0v0h0s0,.07,0,.11h3.67S55.84,20.32,55.83,20.3Z"/><path class="cls-16" d="M54.88,15.64h0s0,0,0,0l0-.37a2.83,2.83,0,0,1,0-.29c0-.1,0-.19,0-.29l0-.28s-.05,0-.08,0a9.09,9.09,0,0,0-.91-.15h0l-.44.07-.55.11c0,.18,0,.37,0,.56s0,.39.05.59c0,0,0,.06,0,.09h0s0,.06,0,.09h0l0,.41,0,.49c0,.14,0,.29,0,.43,0,.37,0,.74,0,1.11h0c0,.14,0,.28,0,.42a1.09,1.09,0,0,0,0,.18h0v0h0s0,0,0,.06,0,.13,0,.2l0,.36,0,.3,0,.48s0,0,0,.05H55c0-.16,0-.32,0-.48s0-.45-.05-.67l0-.3h0v0s0,0,0-.06,0,0,0-.05l0-.38c0-.17,0-.34,0-.51V17c0-.16,0-.32,0-.49s0-.26,0-.39,0-.11,0-.16,0-.2,0-.3h0Z"/><path class="cls-17" d="M54.84,18.85a.15.15,0,0,0-.09,0h-.63c-.11,0-.12,0-.12-.11,0-.52,0-1,0-1.56,0-.36,0-.73,0-1.1V15.7s0-.06,0-.07h0a.15.15,0,0,0,0-.09V14.26a.13.13,0,0,0,0-.06l-.44.07-.55.11c0,.18,0,.37,0,.56s0,.39.05.59c0,0,0,.06,0,.09s0,.06,0,.1l0,.41,0,.49c0,.14,0,.29,0,.43,0,.37,0,.74,0,1.11h0c0,.14,0,.28,0,.42a1.09,1.09,0,0,0,0,.18.12.12,0,0,0,0,.1s0,0,0,.06,0,.13,0,.2l0,.36,0,.3,0,.48s0,0,0,.05h1s0-.06,0-.09V18.88h.77l.06,0Z"/><path class="cls-18" d="M54,15.62h0s0,0,0,.07v.36c0,.37,0,.74,0,1.1,0,.52,0,1,0,1.56,0,.11,0,.11.12.11h.63a.15.15,0,0,1,.09,0v0l-.06,0H53.19l0,0s0-.06,0-.1a1.09,1.09,0,0,1,0-.18c0-.14,0-.28,0-.42h0c0-.37,0-.74,0-1.11,0-.14,0-.29,0-.43l0-.49,0-.41s0-.07,0-.1a.11.11,0,0,1,.08,0h.71A.1.1,0,0,1,54,15.62Z"/><path class="cls-19" d="M54.84,18.85H54s-.06,0-.06-.06c0-.5,0-1,0-1.49s0-1.12,0-1.67h.87a0,0,0,0,1,0,0c0,.1,0,.2,0,.3s0,.1,0,.16,0,.26,0,.39,0,.33,0,.49v.86c0,.17,0,.34,0,.51l0,.38s0,0,0,.05S54.87,18.84,54.84,18.85Z"/><path class="cls-20" d="M54.54,20.35H53a0,0,0,0,1,0-.07h0c0-.07,0-.13,0-.2s0-.19,0-.28a2.51,2.51,0,0,0,0-.3,2.11,2.11,0,0,0,0-.25v-.17c0-.05,0-.1,0-.14h0a.13.13,0,0,1,0-.06h0v0h0a.41.41,0,0,0,0-.11s0-.05,0-.07,0-.13,0-.2a1.64,1.64,0,0,1,0-.22h0c0-.4,0-.78,0-1.11,0-.15,0-.29,0-.43a1.09,1.09,0,0,1,0-.18c0-.1,0-.2,0-.3V16c0-.1,0-.2,0-.3h0v0a.08.08,0,0,1,0-.07.11.11,0,0,1,0-.07v0l0-.46v-.13a1.94,1.94,0,0,1,0-.24l0-.32v0h0l.16,0,.38-.07.31-.05.12,0h0a4.63,4.63,0,0,1,.65.1l.27,0h0a.08.08,0,0,1,.09.06h0a1.09,1.09,0,0,0,0,.18.34.34,0,0,0,0,.1l0,.26V15a1.64,1.64,0,0,0,0,.22c0,.08,0,.16,0,.25v.12s0,0,0,0h0v.06c0,.08,0,.16,0,.24a.86.86,0,0,0,0,.16c0,.1,0,.21,0,.32v.07a1.15,1.15,0,0,1,0,.19c0,.1,0,.21,0,.31v0h0v.81c0,.12,0,.24,0,.35a.76.76,0,0,0,0,.15c0,.07,0,.14,0,.2a1.21,1.21,0,0,1,0,.19v.05h0a.1.1,0,0,1,0,.07h0V19a1.49,1.49,0,0,1,0,.21c0,.21,0,.44.06.66s0,.23,0,.33v.19h-.45ZM53,20.28h1.88v-.11c0-.11,0-.22,0-.33s0-.45,0-.67a1.49,1.49,0,0,1,0-.21v-.09h0l0,0h0v0h0v0c0-.07,0-.13,0-.19s0-.14,0-.2a.76.76,0,0,0,0-.15c0-.12,0-.24,0-.36V17h0v0c0-.1,0-.2,0-.3a1.21,1.21,0,0,1,0-.19v-.08c0-.1,0-.21,0-.32a.92.92,0,0,1,0-.16c0-.07,0-.15,0-.23v-.06l0,0,0,0h0v-.12a2,2,0,0,0,0-.25c0-.07,0-.14,0-.21v-.1a2.11,2.11,0,0,1,0-.26s0-.07,0-.11a1.11,1.11,0,0,1,0-.17h-.05l-.27,0c-.21,0-.42-.08-.64-.1h0l-.13,0-.31.06-.38.07-.13,0c0,.1,0,.2,0,.3a2,2,0,0,1,0,.23v.13c0,.15,0,.31,0,.46v0a.11.11,0,0,0,0,.06l0,0,0,0s0,0,0,0v0h0c0,.1,0,.2,0,.3v.12c0,.1,0,.21,0,.31a1,1,0,0,1,0,.17c0,.14,0,.29,0,.44,0,.33,0,.72,0,1.11h0v0a1.55,1.55,0,0,0,0,.22c0,.06,0,.13,0,.19v.07s0,.08,0,.12h0v0h0l0,0,0,0h0v0h0a.71.71,0,0,0,0,.14v.17c0,.09,0,.17,0,.26s0,.21,0,.3a2.64,2.64,0,0,0,0,.28c0,.06,0,.13,0,.19Zm1.82-1.39Zm0-.05Z"/><path class="cls-21" d="M62.58,26.21A6.62,6.62,0,0,1,62.89,25l-.18.18a.45.45,0,0,1-.47.07l-.08.05a.42.42,0,0,1-.36.12,2,2,0,0,1-.44.12,1.66,1.66,0,0,1-1.06-.24.53.53,0,0,1-.25,0,3.53,3.53,0,0,1-.85-.52c-.09-.08-.16-.16-.24-.24a2.28,2.28,0,0,0-1.21.45.51.51,0,0,1-.22.09h0s0,0-.05,0-.14,0-.2.07a1.92,1.92,0,0,1-2.13,0,1.73,1.73,0,0,1-.44-.46,6.26,6.26,0,0,1-.74.1l-.18,0-.08,0h0a2.26,2.26,0,0,0-.39.15A.42.42,0,0,1,53,25a1.81,1.81,0,0,1-1.93.29,2,2,0,0,1-1-.84,4.53,4.53,0,0,1-1.75.1,1.8,1.8,0,0,1-.5.53,1.57,1.57,0,0,1-1.31.3,1.78,1.78,0,0,1-.49-.18,2.37,2.37,0,0,1-.84,0c.05.18.1.35.14.52s.06.34.1.51c-.23.07-.33.18-.31.37s.12.25.39.3l.15,2H62.34q.07-1,.15-2c.24,0,.36-.11.39-.29S62.81,26.29,62.58,26.21Z"/><path class="cls-22" d="M52.37,20.42l-.06-.07h1.63v0H52.38a.2.2,0,0,1-.18-.11h3.57l-.37.38c-.24.25-.49.49-.72.74a.29.29,0,0,0,.15.49.27.27,0,0,0,.26-.06l.92-.69.07,0v3.21l-.38-.4a4.27,4.27,0,0,0-.44-.41.63.63,0,0,0-.27-.14.41.41,0,0,0-.51.43,1.49,1.49,0,0,0,.87,1.44,1.91,1.91,0,0,0,2-.16.66.66,0,0,1,.15-.05l.08,0a2.28,2.28,0,0,0,.22-.22,2.57,2.57,0,0,0,.4-.77c-.22-.14-.29-.27-.24-.45s.17-.25.41-.26a.45.45,0,0,0-.43-.41.58.58,0,0,0-.69.34,3.42,3.42,0,0,0-.13.34,3,3,0,0,1-.41-1.35,1.31,1.31,0,0,1,.13-.62.76.76,0,0,1,1.05-.4,1.09,1.09,0,0,1,.5.4.18.18,0,0,0,.09.08c0-.1-.06-.2-.08-.3A2.77,2.77,0,0,1,58.33,20,2.67,2.67,0,0,1,59,18.86c.16-.18.35-.34.54-.52.09.14.18.26.25.39a4.79,4.79,0,0,1,.47,1,2.27,2.27,0,0,1-.06,1.34c-.07.21-.16.42-.25.63a.3.3,0,0,0,0,.1l.24-.2a1.06,1.06,0,0,1,.48-.25.46.46,0,0,1,.42.12,1,1,0,0,1,.29.84,1.87,1.87,0,0,1-.69,1.31,1.41,1.41,0,0,1-.18.14c0-.14,0-.26,0-.38a.09.09,0,0,1,0-.05c-.06-.14-.11-.3-.3-.33a.5.5,0,0,0-.5.17c0,.06-.08.12-.13.19.16,0,.31,0,.38.17a.63.63,0,0,1,.06.27c0,.18-.17.28-.45.28a1.67,1.67,0,0,0,.69,1,2.13,2.13,0,0,0,.76.32,1.47,1.47,0,0,0,1.51-.64.7.7,0,0,0,.06-.35.19.19,0,0,0-.29-.17c-.19.08-.37.21-.56.31l-.16.07,0,0,.8-3,0,0a1.22,1.22,0,0,1,.12.19c.08.21.14.42.23.63a1,1,0,0,0,.15.26.29.29,0,0,0,.35.11.28.28,0,0,0,.15-.33c0-.22-.11-.43-.18-.64s-.17-.53-.25-.8a1.57,1.57,0,0,1,0-.16.8.8,0,0,1,.23,0l1.36.47h0l-.1.21c-.5,1.06-1,2.13-1.4,3.23-.06.18-.11.35-.18.53a.32.32,0,0,1-.08.12l-.59.38a.32.32,0,0,0-.12.11c-.07.09,0,.17.06.23a.89.89,0,0,0,.57.12h0c.21,0,.26,0,.28.16a.33.33,0,0,1-.23.38.32.32,0,0,1-.14,0l-3.28,0c-1.36,0-2.72,0-4.09,0-2.45,0-4.9,0-7.35,0l-2.49,0a.33.33,0,0,1-.31-.49.16.16,0,0,1,.11-.07,1.31,1.31,0,0,1,.28,0,.78.78,0,0,0,.47-.13c.1-.06.1-.19,0-.28l-.21-.15-.45-.29a.17.17,0,0,1-.08-.09,26.18,26.18,0,0,0-1.2-3l-.46-1s0,0,0-.05l1-.34.37-.13.25,0a.84.84,0,0,1,0,.19c-.13.4-.26.8-.38,1.21a1.19,1.19,0,0,0,0,.33.23.23,0,0,0,.16.22.22.22,0,0,0,.26-.06,1,1,0,0,0,.23-.31c.09-.2.14-.41.22-.62a2.25,2.25,0,0,1,.12-.21h0l.79,3a.19.19,0,0,1-.18,0,4.94,4.94,0,0,0-.49-.3.23.23,0,0,0-.28,0,.25.25,0,0,0-.07.29,1.06,1.06,0,0,0,.53.59A1.64,1.64,0,0,0,47.84,25a1.74,1.74,0,0,0,.6-.82v0c-.31,0-.44-.13-.46-.33a.3.3,0,0,1,.12-.3,2.22,2.22,0,0,1,.31-.14.54.54,0,0,0-.57-.34.31.31,0,0,0-.27.2c0,.14-.07.29-.11.43a.74.74,0,0,0,0,.15l-.16-.11a2,2,0,0,1-.73-1.39,1,1,0,0,1,.16-.64.54.54,0,0,1,.78-.2,2.6,2.6,0,0,1,.38.27s.06.08.09.11l0,0a.36.36,0,0,0,0-.09,4.25,4.25,0,0,1-.35-1.15,1.94,1.94,0,0,1,.14-1.09,5.72,5.72,0,0,1,.62-1.1,3.49,3.49,0,0,1,1.17,1.45,2.94,2.94,0,0,1-.07,1.83l.06-.06a.1.1,0,0,1,0,0,1.1,1.1,0,0,1,.69-.45.75.75,0,0,1,.78.32,1.41,1.41,0,0,1,.19.94,3.39,3.39,0,0,1-.38,1.15h0a3,3,0,0,0-.16-.37.61.61,0,0,0-.82-.26.45.45,0,0,0-.28.36.37.37,0,0,1,.43.29c0,.19,0,.32-.25.43a2.13,2.13,0,0,0,.63,1l0,0c.13,0,.19.06.28.11a1.91,1.91,0,0,0,2.1,0,1.51,1.51,0,0,0,.66-1.27.41.41,0,0,0,0-.11.42.42,0,0,0-.7-.27,3.47,3.47,0,0,0-.46.4c-.13.13-.25.27-.37.4l-.06.05v-3.2l.1.06.88.66a.3.3,0,0,0,.43-.41l-.64-.66-.29-.28h0Zm6.31,5.77h1.54c.09,0,.14,0,.1-.12a.49.49,0,0,0-.16-.24A6,6,0,0,1,59,24.75c-.08-.11-.16-.11-.27,0a10.12,10.12,0,0,1-1.43,1.08.58.58,0,0,0-.21.23c-.06.1,0,.15.09.15Zm-11-.25s0,.09.07.11a.2.2,0,0,0,.11.06h2.79c.12,0,.1-.12.18-.15a.38.38,0,0,0-.1-.12,10.42,10.42,0,0,1-1.51-1.13.14.14,0,0,0-.24,0l-.18.22a6.08,6.08,0,0,1-1,.88Zm6.29.14h1c.1,0,.18,0,.17-.13s0-.06,0-.07l-.2-.15-.75-.65c-.11-.09-.19-.1-.28,0l-1,.82c-.07.05,0,.11,0,.16s.06,0,.1,0Zm3.27.15h0Zm1.45-2,.07-.06a.18.18,0,0,1,.27,0l.08.1.59.73a.45.45,0,0,0,.07.07l-.7-.9C59,24,58.82,24,58.7,24.24ZM55.11,22a1.23,1.23,0,0,0,.53-.21,1.71,1.71,0,0,1,.23-.13s-.1,0-.14,0A1.81,1.81,0,0,1,55.11,22Zm3.07,2.68h0l.49-.47h0Zm-4.87-4.31h0Z"/><rect class="cls-23" x="47.98" y="23.23" width="2.03" height="0.79" rx="0.4" transform="translate(-2.21 5.27) rotate(-6.02)"/><path class="cls-16" d="M64.45,21.32l-1.36-.47a.8.8,0,0,0-.23,0,1.57,1.57,0,0,0,0,.16c.08.27.17.53.25.8s.13.42.18.64a.28.28,0,0,1-.15.33l-.11,0a.32.32,0,0,1-.24-.13,1,1,0,0,1-.15-.26c-.09-.21-.15-.42-.23-.63a1.22,1.22,0,0,0-.12-.19l0,0c-.27,1-.53,2-.8,3l0,0,.16-.07c.19-.1.37-.23.56-.31l.1,0a.19.19,0,0,1,.19.2.7.7,0,0,1-.06.35,1.45,1.45,0,0,1-1.25.66,1.1,1.1,0,0,1-.26,0,2.13,2.13,0,0,1-.76-.32,1.67,1.67,0,0,1-.69-1c.28,0,.44-.1.45-.28a.63.63,0,0,0-.06-.27c-.07-.14-.22-.15-.38-.17,0-.07.08-.13.13-.19a.52.52,0,0,1,.4-.18h.1c.19,0,.24.19.3.33a.09.09,0,0,0,0,.05c0,.12,0,.24,0,.38a1.41,1.41,0,0,0,.18-.14,1.87,1.87,0,0,0,.69-1.31,1,1,0,0,0-.29-.84.48.48,0,0,0-.32-.13h-.1a1.06,1.06,0,0,0-.48.25l-.24.2a.3.3,0,0,1,0-.1c.09-.21.18-.42.25-.63a2.27,2.27,0,0,0,.06-1.34,4.79,4.79,0,0,0-.47-1c-.07-.13-.16-.25-.25-.39-.19.18-.38.34-.54.52A2.67,2.67,0,0,0,58.33,20a2.77,2.77,0,0,0,.06,1.28c0,.1,0,.2.08.3a.18.18,0,0,1-.09-.08,1.09,1.09,0,0,0-.5-.4,1,1,0,0,0-.36-.07.74.74,0,0,0-.69.47,1.31,1.31,0,0,0-.13.62,3,3,0,0,0,.41,1.35,3.42,3.42,0,0,1,.13-.34.57.57,0,0,1,.54-.35h.15a.45.45,0,0,1,.43.41c-.24,0-.36.09-.41.26s0,.31.24.45a2.57,2.57,0,0,1-.4.77,2.28,2.28,0,0,1-.22.22l-.08,0a.66.66,0,0,0-.15.05,2.23,2.23,0,0,1-1.16.37,1.82,1.82,0,0,1-.83-.21,1.49,1.49,0,0,1-.87-1.44.42.42,0,0,1,.4-.44H55a.63.63,0,0,1,.27.14,4.27,4.27,0,0,1,.44.41l.38.4V21.05l-.07,0-.92.69a.35.35,0,0,1-.2.07h-.06a.29.29,0,0,1-.15-.49c.23-.25.48-.49.72-.74l.37-.38H52.2a.2.2,0,0,0,.18.11h1.56v0H52.31l.06.07h0l.29.28.64.66a.3.3,0,0,1,0,.41.25.25,0,0,1-.19.08.33.33,0,0,1-.22-.08L52,21.11l-.1-.06v3.2L52,24.2c.12-.13.24-.27.37-.4a3.47,3.47,0,0,1,.46-.4.55.55,0,0,1,.3-.11.42.42,0,0,1,.4.38.41.41,0,0,1,0,.11,1.51,1.51,0,0,1-.66,1.27,1.68,1.68,0,0,1-1,.33,2.09,2.09,0,0,1-1.08-.3c-.08,0-.14-.12-.24-.12h0l0,0a2.13,2.13,0,0,1-.63-1c.22-.11.29-.24.25-.43a.36.36,0,0,0-.41-.29h0a.45.45,0,0,1,.28-.36.89.89,0,0,1,.31-.06.56.56,0,0,1,.51.32,3,3,0,0,1,.16.37h0a3.39,3.39,0,0,0,.38-1.15,1.41,1.41,0,0,0-.19-.94.71.71,0,0,0-.61-.33h-.17a1.1,1.1,0,0,0-.69.45.1.1,0,0,0,0,0l-.06.06a2.94,2.94,0,0,0,.07-1.83,3.49,3.49,0,0,0-1.17-1.45,5.72,5.72,0,0,0-.62,1.1,1.94,1.94,0,0,0-.14,1.09A4.25,4.25,0,0,0,48,21.7a.36.36,0,0,1,0,.09l0,0s-.05-.08-.09-.11a2.6,2.6,0,0,0-.38-.27.64.64,0,0,0-.31-.09.56.56,0,0,0-.47.29,1,1,0,0,0-.16.64,2,2,0,0,0,.73,1.39l.16.11a.74.74,0,0,1,0-.15c0-.14.06-.29.11-.43a.31.31,0,0,1,.27-.2h.06a.55.55,0,0,1,.51.35,2.22,2.22,0,0,0-.31.14.3.3,0,0,0-.12.3c0,.2.15.29.46.33v0a1.74,1.74,0,0,1-.6.82,1.69,1.69,0,0,1-1.07.41,1.78,1.78,0,0,1-.79-.2,1.06,1.06,0,0,1-.53-.59.25.25,0,0,1,.07-.29.21.21,0,0,1,.12-.05.3.3,0,0,1,.16.05,4.94,4.94,0,0,1,.49.3.19.19,0,0,0,.12,0h.06c-.26-1-.53-2-.79-3h0a2.25,2.25,0,0,0-.12.21c-.08.21-.13.42-.22.62a1,1,0,0,1-.23.31.2.2,0,0,1-.16.07h-.1a.23.23,0,0,1-.16-.22,1.19,1.19,0,0,1,0-.33c.12-.41.25-.81.38-1.21a.84.84,0,0,0,0-.19l-.25,0-.37.13-1,.34s0,0,0,.05l.46,1a26.18,26.18,0,0,1,1.2,3,.17.17,0,0,0,.08.09l.45.29.21.15c.11.09.11.22,0,.28a.76.76,0,0,1-.41.13h-.34a.14.14,0,0,0-.11.07.33.33,0,0,0,.31.49h0l2.49,0c2.45,0,4.9,0,7.35,0h.28l3.81,0,3.28,0h0l.13,0a.33.33,0,0,0,.23-.38c0-.14-.07-.16-.28-.16h-.14a.76.76,0,0,1-.46-.12c-.1-.06-.13-.14-.06-.23a.32.32,0,0,1,.12-.11l.59-.38a.32.32,0,0,0,.08-.12c.07-.18.12-.35.18-.53.4-1.1.9-2.17,1.4-3.23l.1-.21Zm0,.06a.61.61,0,0,1-.07.14c-.48,1-1,2.11-1.4,3.24l-.08.26-.09.27a.27.27,0,0,1-.08.1l-.33.22-.26.16a.77.77,0,0,0-.13.12.25.25,0,0,0,0,.14.27.27,0,0,0,.11.14.78.78,0,0,0,.48.12h.14c.21,0,.23,0,.25.14a.31.31,0,0,1-.2.34l-.14,0h0l-1.62,0H58.13l-2.64,0h-.28c-1.79,0-3.61,0-5.37,0H45.37a.34.34,0,0,1-.29-.16.3.3,0,0,1,0-.29.16.16,0,0,1,.1-.05h.33a.82.82,0,0,0,.43-.13A.19.19,0,0,0,46,26a.3.3,0,0,0-.1-.2l-.17-.11,0,0-.15-.1-.3-.19a.16.16,0,0,1-.06-.08,26.4,26.4,0,0,0-1.2-3l-.31-.66-.15-.32v0l.26-.09.7-.24.09,0,.28-.1.15,0h.06v0A.36.36,0,0,1,45,21c0,.15-.09.3-.14.44l-.24.77a1.37,1.37,0,0,0,0,.34.26.26,0,0,0,.18.24.22.22,0,0,0,.11,0,.24.24,0,0,0,.19-.08,1.56,1.56,0,0,0,.23-.31c.05-.13.09-.25.13-.38l.09-.25.08-.14,0,0,.57,2.19.21.8h0a.16.16,0,0,1-.1,0l-.49-.3a.45.45,0,0,0-.18-.05.24.24,0,0,0-.14.05.28.28,0,0,0-.08.33,1.07,1.07,0,0,0,.55.6,1.68,1.68,0,0,0,.8.21A1.7,1.7,0,0,0,47.86,25a1.76,1.76,0,0,0,.61-.83,0,0,0,0,1,0,0h0v0h0c-.3,0-.41-.12-.43-.3a.26.26,0,0,1,.1-.27.68.68,0,0,1,.21-.1l.1,0,0,0v0a.58.58,0,0,0-.54-.37h-.06a.34.34,0,0,0-.3.22c0,.11-.06.23-.09.34a.44.44,0,0,1,0,.1v.09h0l-.1-.07a1.92,1.92,0,0,1-.72-1.37,1,1,0,0,1,.16-.62.51.51,0,0,1,.44-.27.64.64,0,0,1,.3.09,1.87,1.87,0,0,1,.29.2l.08.07.06.06,0,0,0,0h0l0,0,0,0v-.05l0-.06a4.1,4.1,0,0,1-.35-1.15,1.87,1.87,0,0,1,.14-1.07,5.3,5.3,0,0,1,.6-1.07,3.46,3.46,0,0,1,1.13,1.42,3,3,0,0,1-.07,1.81l0,.12.08-.09,0,0,0,0,0,0v0a1.1,1.1,0,0,1,.68-.43h.16a.66.66,0,0,1,.58.32,1.35,1.35,0,0,1,.19.92,3.18,3.18,0,0,1-.36,1.09l0-.06a1.83,1.83,0,0,0-.11-.26.61.61,0,0,0-.54-.33.77.77,0,0,0-.32.07.46.46,0,0,0-.3.37v0h.06a.34.34,0,0,1,.38.26c0,.18,0,.29-.23.4l0,0v0a2.15,2.15,0,0,0,.64,1h0s0,0,.06,0h0a.33.33,0,0,1,.16.07l.06.05a2.24,2.24,0,0,0,1.1.3,1.7,1.7,0,0,0,1-.33,1.55,1.55,0,0,0,.67-1.31.45.45,0,0,0,0-.11.45.45,0,0,0-.43-.4.62.62,0,0,0-.32.11,2.83,2.83,0,0,0-.37.32l-.09.09-.26.27-.12.13h0V21.1l.06,0,.87.66a.46.46,0,0,0,.24.08.29.29,0,0,0,.21-.08.33.33,0,0,0,.1-.23.27.27,0,0,0-.08-.23l-.46-.47-.18-.19-.21-.2,0,0h.61v-.06H54v0h0v0H52.38a.14.14,0,0,1-.11,0H55.7l-.07.07-.25.26-.26.27-.46.47a.3.3,0,0,0-.08.32.32.32,0,0,0,.24.22h.07a.35.35,0,0,0,.22-.08l.75-.56.17-.13h0v3.08L56,24.11l-.26-.27-.07-.07c-.12-.12-.24-.24-.37-.35a1,1,0,0,0-.29-.14h-.11a.45.45,0,0,0-.43.47,1.52,1.52,0,0,0,.88,1.46,1.77,1.77,0,0,0,.85.22A2.21,2.21,0,0,0,57.36,25l.09,0h.07a.15.15,0,0,0,.08,0,1.39,1.39,0,0,0,.21-.21,2.67,2.67,0,0,0,.41-.78v0l0,0c-.21-.13-.28-.24-.23-.41s.15-.23.38-.24h0v0a.5.5,0,0,0-.45-.44h-.16a.57.57,0,0,0-.56.36,2.44,2.44,0,0,0-.1.24l0,.05a3,3,0,0,1-.37-1.28,1.29,1.29,0,0,1,.13-.61.71.71,0,0,1,.66-.45.91.91,0,0,1,.35.07,1.07,1.07,0,0,1,.49.39.25.25,0,0,0,.09.09l.06,0,0-.07,0-.1c0-.07,0-.14,0-.21A2.85,2.85,0,0,1,58.36,20,2.71,2.71,0,0,1,59,18.88c.11-.12.23-.23.36-.35l.15-.14a.61.61,0,0,1,.07.1l.17.25,0,.06a4.19,4.19,0,0,1,.43.94,2.15,2.15,0,0,1-.06,1.32c0,.15-.11.3-.17.44l-.08.2a.3.3,0,0,0,0,.1v.06l0,0,.08-.06.16-.14a1,1,0,0,1,.47-.24h.09a.44.44,0,0,1,.3.12.93.93,0,0,1,.28.82,1.86,1.86,0,0,1-.68,1.29l-.11.09h0v-.05l0-.28s0,0,0-.05h0c0-.14-.11-.31-.31-.34h-.11a.59.59,0,0,0-.43.19l-.08.13,0,.06,0,0h.08c.14,0,.27,0,.32.15a.58.58,0,0,1,.06.26c0,.16-.15.25-.42.25h0v0a1.69,1.69,0,0,0,.7,1,2.35,2.35,0,0,0,.77.33,1.23,1.23,0,0,0,.27,0,1.49,1.49,0,0,0,1.28-.67.8.8,0,0,0,.06-.37.23.23,0,0,0-.22-.23l-.11,0c-.13.06-.25.13-.37.2l-.19.11-.11.05h0l.39-1.5.39-1.49,0,0a.42.42,0,0,1,.08.12l.11.3c0,.11.07.23.12.34a1,1,0,0,0,.16.26.36.36,0,0,0,.26.14l.13,0a.33.33,0,0,0,.16-.37c-.05-.21-.11-.42-.17-.62v0c0-.15-.09-.3-.14-.45s-.07-.23-.11-.35,0-.06,0-.09v0h0l.14,0,1.08.38.28.09Z"/><path class="cls-16" d="M50.83,25.91a.27.27,0,0,0-.07-.08,11,11,0,0,1-1.51-1.13.17.17,0,0,0-.28,0l-.15.17,0,.05a5.58,5.58,0,0,1-1,.88.6.6,0,0,0-.08.08l0,0v0l0,0a.56.56,0,0,0,.05.08.25.25,0,0,0,.13.06h2.79a.15.15,0,0,0,.14-.1.12.12,0,0,1,.05-.05l0,0,0,0Zm-.17.21H47.87a.2.2,0,0,1-.11-.06s0-.06-.07-.11l.11-.11a6.08,6.08,0,0,0,1-.88l.18-.22a.19.19,0,0,1,.12-.07.17.17,0,0,1,.12.06,10.42,10.42,0,0,0,1.51,1.13.38.38,0,0,1,.1.12C50.76,26,50.78,26.12,50.66,26.12Z"/><path class="cls-16" d="M55,25.78l-.1-.07c-.27-.23-.52-.44-.75-.65A.28.28,0,0,0,54,25a.2.2,0,0,0-.14.05l-.32.27-.66.54a.13.13,0,0,0,0,.17,0,0,0,0,0,0,0c0,.05.1.07.13.07h2a.22.22,0,0,0,.16,0,.21.21,0,0,0,0-.12.11.11,0,0,0,0-.09Zm0,.3H53s-.1,0-.1,0-.06-.11,0-.16l1-.82A.19.19,0,0,1,54,25a.25.25,0,0,1,.16.07l.75.65.2.15s0,.05,0,.07S55.06,26.08,55,26.08Z"/><path class="cls-16" d="M59,24.73a.19.19,0,0,0-.16-.1.3.3,0,0,0-.16.08,9.85,9.85,0,0,1-1.43,1.07.6.6,0,0,0-.22.25.13.13,0,0,0,0,.13.15.15,0,0,0,.14.06h0v0h3v0h0a.16.16,0,0,0,.13,0,.13.13,0,0,0,0-.11.62.62,0,0,0-.17-.25A5.54,5.54,0,0,1,59,24.73Zm1.14,1.51h0Zm.06,0h-3c-.11,0-.15-.05-.09-.15a.58.58,0,0,1,.21-.23,10.12,10.12,0,0,0,1.43-1.08.3.3,0,0,1,.14-.07s.09,0,.13.09a6,6,0,0,0,1.17,1.08.49.49,0,0,1,.16.24C60.36,26.15,60.31,26.19,60.22,26.19Z"/><rect class="cls-24" x="57.93" y="23.27" width="2.03" height="0.79" rx="0.4" transform="translate(2.76 -5.97) rotate(5.94)"/><path class="cls-25" d="M55.38,7.92l-.56.6a.24.24,0,0,1-.33,0,.25.25,0,0,1,0-.33l.36-.48c0-.06.09-.13.15-.2H53v0c.16.22.32.44.49.65a.26.26,0,0,1,0,.28.25.25,0,0,1-.4,0L52.71,8l-.14-.16V10.1l0,0,.55-.53a.25.25,0,0,1,.36.33l-.42.54-.12.15h2l0,0-.51-.66a.24.24,0,0,1,0-.29.25.25,0,0,1,.38,0l.43.42.15.14V7.88Z"/><path class="cls-26" d="M54,8.62a.42.42,0,0,0-.42.42.42.42,0,1,0,.84,0A.42.42,0,0,0,54,8.62Z"/><circle class="cls-27" cx="51.18" cy="13.89" r="0.82"/><circle class="cls-28" cx="49.34" cy="13.1" r="0.82"/><circle class="cls-29" cx="47.37" cy="12.38" r="0.82"/><circle class="cls-30" cx="45.32" cy="12.38" r="0.82"/><circle class="cls-31" cx="43.43" cy="13.21" r="0.82"/><circle class="cls-32" cx="42.13" cy="14.82" r="0.82"/><circle class="cls-33" cx="41.58" cy="16.83" r="0.82"/><circle class="cls-34" cx="41.75" cy="18.89" r="0.82"/><circle class="cls-35" cx="42.27" cy="20.87" r="0.82"/><circle class="cls-36" cx="56.82" cy="13.9" r="0.82"/><circle class="cls-37" cx="58.66" cy="13.1" r="0.82"/><circle class="cls-38" cx="60.63" cy="12.38" r="0.82"/><circle class="cls-39" cx="62.68" cy="12.38" r="0.82"/><circle class="cls-40" cx="64.57" cy="13.22" r="0.82"/><circle class="cls-41" cx="65.87" cy="14.83" r="0.82"/><circle class="cls-42" cx="66.42" cy="16.84" r="0.82"/><circle class="cls-43" cx="66.25" cy="18.9" r="0.82"/><circle class="cls-44" cx="65.73" cy="20.88" r="0.82"/><circle class="cls-45" cx="53.98" cy="15.14" r="0.52"/><circle class="cls-46" cx="53.98" cy="16.59" r="0.52"/><circle class="cls-47" cx="53.98" cy="18.03" r="0.52"/><circle class="cls-48" cx="53.98" cy="19.48" r="0.52"/><circle class="cls-49" cx="53.98" cy="22.58" r="0.66"/><path class="cls-50" d="M58.46,28.81c-.85,0-1.53-.33-1.53-.75s.68-.74,1.53-.74,1.53.33,1.53.74S59.3,28.81,58.46,28.81Z"/><path class="cls-51" d="M58.36,28.56c-.77,0-1.41-.28-1.41-.63s.64-.62,1.41-.62,1.41.28,1.41.62S59.14,28.56,58.36,28.56Z"/><path class="cls-52" d="M58.36,27.32c.77,0,1.39.28,1.39.61s-.62.62-1.39.62S57,28.27,57,27.93s.62-.61,1.39-.61m0,0c-.78,0-1.42.29-1.42.64s.64.65,1.42.65,1.42-.29,1.42-.65-.63-.64-1.42-.64Z"/><path class="cls-50" d="M49.49,28.79c-.85,0-1.53-.33-1.53-.74s.68-.75,1.53-.75,1.53.34,1.53.75S50.33,28.79,49.49,28.79Z"/><path class="cls-53" d="M49.58,28.53c-.77,0-1.4-.28-1.4-.63s.63-.63,1.4-.63,1.41.28,1.41.63S50.36,28.53,49.58,28.53Z"/><path class="cls-52" d="M49.58,27.29c.77,0,1.39.27,1.39.61s-.62.61-1.39.61-1.39-.27-1.39-.61.62-.61,1.39-.61m0,0c-.78,0-1.42.29-1.42.64s.64.64,1.42.64S51,28.26,51,27.9s-.63-.64-1.42-.64Z"/><rect class="cls-50" x="52.27" y="27.13" width="3.25" height="1.66"/><rect class="cls-54" x="52.42" y="27.11" width="3.11" height="1.48"/><path class="cls-55" d="M52.47,27.15h0s.05,0,.07.06a1.54,1.54,0,0,0,.17.19c.06.07.12.13.17.2a.14.14,0,0,0,.11,0h1.89a.1.1,0,0,0,.09,0l.19-.21.15-.17a.34.34,0,0,1,.09-.08h.05c-.13.14-.25.29-.37.43l-.23.27s0,0-.08,0H53.14s0,0-.07,0Z"/><path class="cls-56" d="M52.73,27.4l-.22-.25h2.93l-.22.25a.15.15,0,0,1-.09,0H52.82A.13.13,0,0,1,52.73,27.4Z"/><path class="cls-57" d="M52.73,27.4h2.49c-.07.09-.15.17-.22.25s0,0,0,0H53.07a.21.21,0,0,1-.18-.08C52.84,27.52,52.78,27.46,52.73,27.4Z"/><path class="cls-56" d="M52.41,28.56h0s0,0,.07-.06l.17-.19.17-.19a.13.13,0,0,1,.11-.06h.61c.2,0,.4,0,.61,0h.68a.09.09,0,0,1,.08,0l.19.21.15.17s.05.07.09.08h0l-.37-.42-.23-.27a.1.1,0,0,0-.07,0H53.08a.1.1,0,0,0-.07,0Z"/><path class="cls-58" d="M52.67,28.32l-.22.24h2.93l-.22-.24a.15.15,0,0,0-.09,0H52.76A.15.15,0,0,0,52.67,28.32Z"/><path class="cls-59" d="M52.67,28.32h2.49a2.75,2.75,0,0,0-.22-.26l0,0h-1c-.31,0-.61,0-.92,0a.2.2,0,0,0-.18.09C52.78,28.19,52.72,28.25,52.67,28.32Z"/><path class="cls-50" d="M62.89,28s0,0,0,0h0l0,0c-.17-.19-.33-.39-.5-.59a.09.09,0,0,0-.08,0l-1.26,0h0c0,.47,0,.92,0,1.38,0,0,0,0,.05,0l1.26,0a.09.09,0,0,0,.08,0l.5-.6a.08.08,0,0,0,0,0h0S62.9,28,62.89,28Z"/><path class="cls-60" d="M62.89,27.92s0,0,0,0h0l0,0-.45-.54s0,0-.07,0l-1.14,0h0c0,.43,0,.84,0,1.25,0,0,0,0,.05,0h1.14a.08.08,0,0,0,.07,0l.45-.54,0,0h0Z"/><path class="cls-61" d="M62.83,27.86c-.15-.17-.29-.34-.43-.52a.1.1,0,0,0-.08,0H61.5l-.2,0h0c.16.18.32.34.48.51a.18.18,0,0,0,.14.06h1S62.84,27.87,62.83,27.86Z"/><path class="cls-50" d="M45,27.9h0l0,0,.49-.6a.11.11,0,0,1,.09,0l1.25,0h0c0,.47,0,.93,0,1.38,0,.05,0,0,0,0l-1.25,0a.11.11,0,0,1-.09,0L45,28l0,0h0Z"/><path class="cls-60" d="M45,27.83h0s0,0,0,0c.15-.18.31-.36.45-.55a.13.13,0,0,1,.08,0l1.14,0h0c0,.43,0,.84,0,1.25,0,0,0,0,0,0l-1.14,0a.1.1,0,0,1-.08,0c-.14-.18-.3-.36-.45-.54l0,0h0S45,27.84,45,27.83Z"/><path class="cls-62" d="M45.06,27.78l.43-.53a.09.09,0,0,1,.07,0h.82l.21,0h0c-.16.17-.32.33-.47.5a.19.19,0,0,1-.15.06H45Z"/><path class="cls-63" d="M62.83,24.15a.83.83,0,0,0,.05.18.16.16,0,0,0,.1.08.43.43,0,0,0,.45-.16.88.88,0,0,0,.25-.51.73.73,0,0,0-.06-.44.37.37,0,0,0-.22-.17.25.25,0,0,0-.11,0,.67.67,0,0,0-.26.29A1.51,1.51,0,0,0,62.83,24.15Z"/><path class="cls-64" d="M45,24.15s0,.12-.06.18a.12.12,0,0,1-.09.08.45.45,0,0,1-.46-.16.81.81,0,0,1-.24-.51.73.73,0,0,1,.06-.44.37.37,0,0,1,.22-.17.3.3,0,0,1,.11,0,.67.67,0,0,1,.26.29A1.64,1.64,0,0,1,45,24.15Z"/></svg>
