<svg xmlns="http://www.w3.org/2000/svg" width="108" height="39" viewBox="0 0 108 39">
    <g fill="none" fill-rule="evenodd">
        <g fill="#F60" fill-rule="nonzero">
            <g>
                <path d="M61.478 10.733c.145-.001.284.055.386.158.103.102.16.24.158.385v16.491c.002.133-.05.262-.144.356-.094.094-.223.146-.357.144h-3.417c-.221-.03-.427-.13-.588-.283 0 0-6.14-8.408-6.335-8.625-.167-.245-.306-.507-.414-.782v9.19c.001.137-.054.268-.153.362-.1.095-.233.145-.37.138h-3.83c-.138.007-.271-.043-.37-.138-.099-.094-.154-.225-.153-.362v-16.49c-.001-.137.054-.268.153-.363.099-.094.232-.144.37-.137h3.417c.216.026.416.126.566.282 0 0 6.074 8.256 6.335 8.626.17.246.316.508.436.782v-9.19c-.003-.134.05-.262.144-.356.094-.095.223-.147.356-.144 0-.044 3.57-.044 3.81-.044zm26.994 23.878c-8.316 0-15.086-6.779-15.086-15.1 0-8.343 6.77-15.122 15.086-15.122 8.295 0 15.065 6.779 15.065 15.122 0 8.321-6.77 15.1-15.065 15.1zm-34.505 0c-8.316 0-15.086-6.779-15.086-15.1 0-8.343 6.77-15.122 15.086-15.122 8.295 0 15.065 6.779 15.065 15.122 0 8.321-6.77 15.1-15.065 15.1zm-34.505 0c-8.316 0-15.086-6.779-15.086-15.1 0-8.343 6.77-15.122 15.086-15.122 8.295 0 15.065 6.779 15.065 15.122-.022 8.321-6.792 15.1-15.065 15.1zM88.472 0c-7.488 0-13.997 4.28-17.285 10.516C67.862 4.059 61.198 0 53.924 0 46.65 0 39.986 4.06 36.66 10.516 33.321 4.06 26.654.005 19.375 0 8.73 0 0 8.756 0 19.51 0 30.245 8.73 39 19.462 39c7.467 0 13.998-4.28 17.264-10.516C40.06 34.934 46.718 38.99 53.989 39c7.489 0 13.998-4.28 17.285-10.516 3.33 6.453 9.991 10.51 17.264 10.516C99.27 39 108 30.244 108 19.51 107.935 8.757 99.183 0 88.472 0zM12.148 11.059c-.134-.002-.263.05-.357.144-.094.094-.146.223-.144.356v3.28c-.002.134.05.262.144.356.094.095.223.146.357.144h3.962c.255-.002.51-.024.762-.065v12.928c-.003.133.05.261.144.355.094.095.223.147.356.144h4.071c.134.003.262-.05.357-.144.094-.094.146-.222.144-.355V15.274c.318.04.638.061.958.065h3.788c.133.002.262-.05.356-.144.095-.094.147-.222.145-.355v-3.281c.002-.133-.05-.262-.145-.356-.094-.094-.223-.146-.356-.144H12.148zm83.617 0c.134-.002.262.05.357.144.094.094.146.223.144.356v3.28c.002.134-.05.262-.144.356-.095.095-.223.146-.357.144H92c-.327-.003-.654-.025-.98-.065v12.928c.003.133-.05.261-.144.355-.094.095-.223.147-.356.144h-4.071c-.134.003-.262-.05-.357-.144-.094-.094-.146-.222-.144-.355V15.274c-.252.041-.506.063-.762.065h-3.962c-.133.002-.262-.05-.356-.144-.095-.094-.147-.222-.145-.355v-3.281c-.002-.133.05-.262.145-.356.094-.094.223-.146.356-.144h14.542z" transform="translate(-11 -36) translate(11 36)"/>
            </g>
        </g>
    </g>
</svg>
