<svg xmlns="http://www.w3.org/2000/svg" xmlns:xlink="http://www.w3.org/1999/xlink" width="45" height="53" viewBox="0 0 45 53">
    <defs>
        <path id="jl2wxevjqa" d="M0 0L45 0 45 53 0 53z"/>
    </defs>
    <g fill="none" fill-rule="evenodd">
        <g>
            <g>
                <path fill="#060000" fill-rule="nonzero" d="M22.507 52.535c.495-.207 12.38-5.283 16.117-8.31 3.906-3.165 5.97-7.702 5.97-13.123V5.587l-.314-.167C34.756.356 22.985.685 22.49.702 22.03.685 10.26.358.74 5.42l-.313.167v25.515c0 5.421 2.066 9.958 5.97 13.124 3.736 3.026 15.617 8.102 16.11 8.31" transform="translate(-43 -30) translate(43 30)"/>
                <g transform="translate(-43 -30) translate(43 30)">
                    <mask id="7b9qresaob" fill="#fff">
                        <use xlink:href="#jl2wxevjqa"/>
                    </mask>
                    <path fill="#FDBD10" fill-rule="nonzero" d="M1.786 31.227c0 4.939 1.858 9.055 5.364 11.898 3.15 2.549 12.691 6.787 15.346 7.946 2.657-1.159 12.2-5.397 15.346-7.946 3.514-2.843 5.37-6.96 5.37-11.898V5.252c-13.28-1.219-28.99-.471-41.426 10.797v15.178zM22.496 53S9.909 47.639 6.022 44.49C1.957 41.197 0 36.573 0 31.227V4.877C9.935-.409 22.496.007 22.496.007S35.061-.41 45 4.875v26.349c0 5.349-1.959 9.972-6.024 13.264-3.888 3.15-16.48 8.51-16.48 8.51V53z" mask="url(#7b9qresaob)"/>
                </g>
                <path fill="#FDBD10" fill-rule="nonzero" d="M35.198 27.576c1.746 1.013 2.45 1.682 2.478 2.913.033 1.366-.924 2.19-2.378 2.183-1.266-.008-2.78-.703-3.795-1.594v3.611c1.244.73 2.795 1.215 4.362 1.215 3.922 0 5.673-2.738 5.75-5.244.074-2.287-.567-4.019-3.882-5.941-1.482-.857-2.65-1.423-2.61-2.852.037-1.39 1.21-1.88 2.332-1.87 1.388.012 2.728.773 3.557 1.612v-3.411c-.699-.53-2.177-1.34-4.355-1.274-2.612.076-5.341 1.942-5.324 5.11.007 2.085.594 3.646 3.865 5.542m-13.484-7.212c.323-.157.869-.281 1.406-.281 2.302 0 3.256 1.815 3.256 6.209 0 4.285-1.09 6.355-3.374 6.355-.534 0-1.004-.132-1.288-.237V20.364zm0 15.252c.396.114.972.221 1.786.221 4.404 0 6.933-3.92 6.933-9.646 0-5.714-2.604-9.267-7.34-9.267-2.163 0-3.909.478-5.345 1.395V43.87h3.966v-8.255zm-11.984.288c2.428 0 4.465-.554 5.979-1.575V17.322h-3.962v14.777c-.43.294-1.07.48-1.877.48-1.819 0-2.09-1.648-2.09-2.76V17.322H3.812v12.323c0 4.155 1.992 6.26 5.917 6.26" transform="translate(-43 -30) translate(43 30)"/>
            </g>
        </g>
    </g>
</svg>
