<svg xmlns="http://www.w3.org/2000/svg" width="115" height="19" viewBox="0 0 115 19">
    <g fill="none" fill-rule="evenodd">
        <g fill-rule="nonzero">
            <g>
                <path fill="#284E80" d="M4.737 0.096L4.882 0.096 5.124 0.143 5.413 0.191 6.185 0.382 7.247 0.572 7.826 0.717 8.453 0.859 9.129 0.955 9.804 1.146 10.528 1.241 11.252 1.432 13.568 1.861 14.292 2.053 15.064 2.196 15.738 2.339 16.463 2.482 17.138 2.625 17.814 2.721 18.393 2.865 18.972 2.96 19.455 3.102 19.889 3.199 20.274 3.246 20.612 3.294 20.854 3.342 20.998 3.389 21.094 3.389 21.722 3.533 22.301 3.628 22.784 3.771 23.17 3.866 23.556 4.01 23.846 4.106 24.231 4.297 24.376 4.392 24.617 4.63 24.617 4.679 24.667 4.726 24.667 4.774 26.74 4.774 26.934 4.822 27.127 4.822 27.271 4.869 27.416 4.869 27.561 4.917 27.947 5.107 27.995 5.204 28.333 5.728 28.43 6.349 28.333 7.113 28.092 7.829 27.802 8.545 27.512 9.118 27.271 9.5 27.175 9.644 27.079 9.692 26.837 9.786 26.499 9.93 26.016 10.121 25.486 10.313 24.811 10.598 24.086 10.885 23.266 11.172 22.349 11.553 21.384 11.887 20.42 12.269 18.297 13.129 17.187 13.559 16.076 13.941 14.967 14.416 13.81 14.847 12.699 15.229 11.637 15.707 10.528 16.09 9.514 16.471 7.584 17.234 6.716 17.569 5.895 17.855 5.172 18.141 4.545 18.38 4.014 18.619 3.58 18.762 3.242 18.906 3.049 18.953 3 19 27.947 19 32 0 4.737 0 4.737 0.096z" transform="translate(-8 -46) translate(8 46)"/>
                <path fill="#284E80" d="M23.216 5.516L23.077 5.563 22.154 5.75 21.924 5.75 21.739 5.797 21.555 5.797 21.277 5.845 21.139 5.891 21.047 5.938 21 6.032 21 6.125 21.093 6.219 21.277 6.219 21.462 6.266 21.924 6.266 22.2 6.219 22.477 6.219 23.124 6.125 23.447 6.125 23.816 6.078 24.139 6.032 24.417 5.984 24.739 5.938 25.985 5.938 26.123 5.984 26.216 6.032 26.308 6.172 26.308 6.359 26.262 6.547 26.216 6.781 26.123 7.062 25.985 7.391 25.893 7.719 25.847 7.906 25.939 8 26.031 7.953 26.216 7.765 26.308 7.625 26.446 7.391 26.585 7.109 26.724 6.781 26.862 6.501 26.954 6.219 27 5.984 27 5.703 26.908 5.469 26.77 5.328 26.585 5.188 26.355 5.094 26.077 5.047 25.755 5 23.816 5 23.77 5.047 23.723 5.047 23.632 5.094 23.539 5.282 23.447 5.328 23.355 5.422z" transform="translate(-8 -46) translate(8 46)"/>
                <path fill="#284E80" d="M3.192 4L0 19 0.146 18.952 0.436 18.756 0.919 18.56 1.548 18.217 2.273 17.874 3.095 17.433 4.062 16.991 4.981 16.501 5.948 16.06 6.866 15.569 7.785 15.127 8.655 14.686 9.381 14.293 10.009 14 10.493 13.756 10.832 13.608 11.315 13.363 11.751 13.118 12.282 12.872 12.814 12.579 13.298 12.333 13.878 12.088 14.41 11.794 14.99 11.55 15.571 11.255 18.472 10.03 19.777 9.588 19.971 9.539 20.164 9.442 20.406 9.392 21.276 9.098 22.292 8.804 22.63 8.755 23.645 8.461 24.226 8.363 24.419 8.314 24.564 8.264 24.71 8.264 24.854 8.216 24.951 8.118 25 8.118 25 8.068 24.902 7.873 24.757 7.824 24.564 7.774 24.371 7.774 24.082 7.726 23.79 7.726 23.452 7.774 22.872 7.824 22.243 7.921 21.566 8.068 20.841 8.216 20.116 8.412 19.342 8.657 18.617 8.902 17.843 9.147 17.118 9.442 16.392 9.686 15.716 9.932 15.088 10.177 14.506 10.471 14.023 10.667 13.588 10.864 13.249 11.06 11.412 5.274 23.114 5.274 23.162 5.03 22.969 4.784 22.678 4.637 22.243 4.49 21.76 4.343 20.502 4.147 18.472 4 3.192 4z" transform="translate(-8 -46) translate(8 46)"/>
                <path fill="#CA4256" d="M114.883 9L34 9 34.116 8 115 8z" transform="translate(-8 -46) translate(8 46)"/>
                <path fill="#000" d="M37.608 7.22l-.618-.047-.618-.143-.476-.142-.427-.285-.285-.332-.19-.429-.048-.474.048-.57.238-1.045.19-.95.19-.808.143-.664.095-.57.094-.428.048-.237.047-.095h1.569l-.048.19-.095.475-.19.712-.143.808-.19.808-.237 1.187-.048.142-.046.38v.666l.094.237.19.19.237.142.333.094.38.048.428-.048.333-.047.333-.143.238-.237.19-.237.19-.286.286-.76.047-.38.142-.57.144-.712.143-.76.189-.713.096-.617.094-.428.048-.142h1.569l-.285 1.377-.143.714-.095.237v.094l-.048.286-.142.712-.332 1.378-.048.284-.143.286-.096.237-.142.237-.19.238-.38.38-.238.142-.285.143-.238.143-.284.094-.286.048-.286.095-.664.096h-.382zm73.111-6.08h-2.234l-.38.095-.284.19-.048.095-.048.143v.19l.048.19.142.19.143.238.428.427.285.19.237.19.286.238.474.475.192.238.284.57.047.284-.047.332-.094.334-.144.332-.238.285-.333.238-.38.189-.475.142-.618.095-.665.047h-2.424l.285-1.14h2.567l.237-.047.19-.048.144-.094.143-.19.094-.19-.047-.38-.284-.38-.476-.38-.476-.427-.521-.475-.43-.523-.284-.523-.046-.617.094-.332.19-.38.19-.285.334-.237.427-.19.428-.143.57-.095h2.758l-.24 1.14zm-5.514 0h-3.565l-.429 1.853h3.14l-.238.997h-3.138l-.381 1.948h3.565l-.238 1.14h-5.133L100.309 0h5.135l-.24 1.14zm-6.18 0h-2.186l-1.283 5.937h-1.569l1.284-5.936h-2.235L93.32 0h5.943l-.24 1.14zM88.091 7.078l.619-1.14h2.233l-.617-4.511-3.138 5.651h-1.57L89.709.001h1.854l1.094 7.076h-4.564zm-.285-5.936H85.62l-1.283 5.936h-1.57l1.283-5.936h-2.232L82.102 0h5.941l-.236 1.14zm-6.798 0h-2.187l-.238.046-.19.048-.143.096-.19.189v.332l.048.19.095.191.19.237.427.427.238.19.286.19.712.713.19.238.19.285.095.285.048.284v.333l-.096.333-.142.332-.285.285-.285.238-.426.189-.476.142-.57.096-.714.047H75.21l.237-1.14h2.615l.237-.047.19-.048.144-.094.141-.19.048-.19-.048-.38-.284-.38-.428-.38-.474-.427-.524-.475-.428-.523-.284-.523-.048-.617.095-.332.142-.38.238-.285.333-.237.381-.19.475-.143.57-.095h2.757l-.285 1.14zM66.653 3.515l-.714 3.562h3.186l.38-.047h.38l.665-.19.38-.143.334-.19.57-.38.57-.57.476-.664.19-.38.143-.38.094-.428.048-.19.047-.284.095-.664-.047-.618-.143-.523-.238-.474-.38-.428-.474-.285-.619-.19-.713-.048h-3.47l-.76 3.514zm5.182 0l-.048.238-.144.285-.094.237-.094.285-.143.19-.19.237-.381.381-.476.284-.236.096-.285.094-.572.095h-1.425l.474-2.423.524-2.374h2.044l.38.143.286.19.236.284.144.284.094.38v.76l-.094.285v.05zm-5.8-2.374h-3.518l-.428 1.852h3.091l-.191.997h-3.136l-.381 1.948h3.517l-.19 1.14h-5.133L61.187 0h5.086l-.238 1.14zm-6.132 0H57.67l-1.284 5.936h-1.52l1.282-5.936h-2.233L54.15 0h5.943l-.19 1.14zm-8.319 5.936h-1.521L51.536.001h1.568l-1.52 7.076zm-3.042 0h-1.95l-1.758-5.271h-.047l-1.094 5.271h-1.378l1.52-7.076h1.997l1.712 5.32L48.638 0h1.426l-1.522 7.076zm-13.025 9.12h-.19l-.095-.047h-.285l-.095-.047h-.095l-.095-.998h.38l.048.047h.285l.38-.047.57-.19.191-.19.284-.381.096-.188v-.191l.047-.238v-.236l-.047-.191-.096-.142-.284-.191h-.19l-.19-.047h-1.283l-1.284 5.938H32l1.522-7.079h3.375l.523.048.38.191.333.237.19.332.095.333.048.38v.38l-.048.333-.143.475-.237.428-.286.38-.38.332-.38.238-.952.284-.523.046zm78.245-3.277h-3.612l-.382 1.852h3.138l-.238 1.044h-3.136l-.381 1.948h3.565l-.238 1.093h-5.133l1.521-7.078H114l-.238 1.14zm-6.322.095l-.192-.048h-.142l-.38-.094-.238-.048h-.237l-.191-.048h-.285l-.523.048-.475.142-.474.19-.428.334-.333.332-.333.428-.19.522-.19.57-.096.57.048.522.142.428.191.333.285.285.38.238.428.141.475.047h.284l.286-.047h.238l.475-.094h.189l.239-.047.19-.048-.381 1.188-.19.046h-.238l-.19.048h-.238l-.19.047h-1.093l-.761-.095-.333-.093-.333-.144-.285-.143-.284-.19-.238-.189-.238-.239-.143-.284-.142-.333-.143-.284-.048-.38v-.38l.048-.428.047-.475.143-.426.143-.475.38-.76.238-.333.57-.57.334-.238.664-.38.76-.285.382-.095.38-.046.427-.047h.999l.19.047h.19l.19.046h.19l.19.048-.14 1.186zm-7.843 5.842h-1.57l1.522-7.078h1.568l-1.52 7.078zm-5.04 0h-1.855l-1.045-7.078h1.57l.713 5.7 3.137-5.7H98.6l-4.043 7.078zm-5.752-3.04l1.141 3.04h-1.712L86.95 15.01h.904l.285-.048.284-.094.238-.143.19-.142.19-.191.094-.236.096-.285.047-.19v-.19l-.095-.286-.094-.094-.19-.095-.476-.094h-1.426l-1.283 5.937h-1.568l1.521-7.078h3.28l.474.048.43.094.332.143.238.19.19.238.143.332.047.38v.38l-.047.474-.143.43-.19.378-.238.285-.285.284-.38.191-.333.143-.381.046zM84.29 12.92h-3.567l-.38 1.852h3.09l-.19 1.044h-3.137l-.38 1.948h3.565l-.237 1.093h-5.182l1.522-7.078h5.133l-.237 1.14zm-6.467 0h-1.995l-.476.094-.19.048-.095.095-.143.094-.094.19v.237l.048.191.094.189.19.19.19.238.238.189.238.239.284.19.238.236.284.19.192.285.19.238.19.284.095.238.046.332v.285l-.094.38-.144.285-.57.57-.38.19-.525.143-.57.094h-3.089l.238-1.093h2.613l.238-.046.19-.096.143-.095.142-.141.095-.191-.095-.38-.284-.38-.428-.427-.474-.428-.525-.428-.427-.522-.285-.57-.048-.57.095-.38.143-.333.238-.284.333-.238.38-.19.475-.143.571-.094.665-.048h2.092l-.237 1.143zm-8.46 5.937h-4.802l1.474-7.078h1.617l-1.285 5.985H69.6l-.237 1.093zm-10.174 0l.618-1.093h2.234l-.665-4.56-3.09 5.652h-1.568l4.04-7.078h1.902l1.094 7.078h-4.565zm-.284-5.937H56.67l-1.283 5.937h-1.57l1.285-5.937h-2.187l.239-1.141h5.941l-.19 1.14zm-6.798 0H50.11l-.475.094-.143.048-.142.095-.19.19-.047.094v.237l.048.191.284.38.19.237.237.189.237.239.286.19.285.236.237.19.19.285.239.238.142.284.096.238.094.332-.047.285-.095.38-.143.285-.237.285-.286.284-.428.19-.522.143-.57.095h-3.043l.19-1.093h2.663l.19-.047.38-.19.094-.143.095-.19-.047-.38-.286-.38-.427-.427-.523-.428-.476-.428-.428-.522-.285-.57-.095-.57.095-.38.19-.333.24-.28.284-.238.38-.19.522-.143.57-.095.618-.048h2.093l-.237 1.14zM38.892 15.34l-.096.762.143.996.286.57.189.285.428.427.285.19.285.143.333.143.38.094.38.047h.809l.76-.094.38-.094.38-.143.333-.144.285-.19.333-.189.285-.239.238-.284.285-.284.19-.333.38-.76.142-.428.095-.475.095-.38v-.711l-.048-.38-.047-.333-.285-.571-.378-.474-.238-.19-.285-.19-.286-.142-.38-.143-.333-.095-.38-.046h-.808l-.76.093-.38.095-.38.144-.334.142-.284.19-.333.237-.285.19-.286.286-.237.333-.238.284-.19.38-.143.38-.142.475-.143.426zm5.941 0l-.142.57-.238.523-.238.427-.332.333-.38.286-.428.237-.428.142-.524.047-.523-.047-.38-.19-.333-.237-.237-.333-.144-.333-.094-.474v-.475l.094-.475.144-.57.237-.522.238-.427.333-.333.38-.333.428-.19.427-.143.523-.047.476.095.428.094.333.286.237.285.143.38.095.426v.475l-.095.523z" transform="translate(-8 -46) translate(8 46)"/>
            </g>
        </g>
    </g>
</svg>
